<svg width="100" height="100" viewBox="0 0 100 100" fill="none" xmlns="http://www.w3.org/2000/svg">
<g clip-path="url(#clip0_89_231)">
<rect width="100" height="100" rx="50" fill="#FAFAFA"/>
<path d="M114.613 62.3889C125.814 88.5611 114.673 118.432 89.7285 129.108C64.7843 139.783 35.4826 127.221 24.2815 101.049C13.0804 74.8764 24.2214 45.0053 49.1656 34.3297C74.1099 23.6541 103.412 36.2166 114.613 62.3889Z" fill="#77ED9C"/>
<path d="M41.0079 67.4278C41.0079 68.6444 40.0216 69.6307 38.805 69.6307C37.5885 69.6307 36.6022 68.6444 36.6022 67.4278C36.6022 66.2112 37.5885 65.225 38.805 65.225C40.0216 65.225 41.0079 66.2112 41.0079 67.4278Z" fill="#111111"/>
<path d="M65.6798 44.5182C65.6798 45.7348 64.6936 46.721 63.477 46.721C62.2604 46.721 61.2741 45.7348 61.2741 44.5182C61.2741 43.3016 62.2604 42.3153 63.477 42.3153C64.6936 42.3153 65.6798 43.3016 65.6798 44.5182Z" fill="#111111"/>
<path d="M64.7776 61.7049C66.1481 63.4981 65.64 66.1891 63.6429 67.7153C61.6458 69.2416 58.9158 69.0252 57.5454 67.232C56.175 65.4388 58.9282 65.6856 60.9253 64.1594C62.9224 62.6331 63.4072 59.9117 64.7776 61.7049Z" fill="#111111"/>
</g>
<defs>
<clipPath id="clip0_89_231">
<rect width="100" height="100" rx="50" fill="white"/>
</clipPath>
</defs>
</svg>
