<svg width="100" height="100" viewBox="0 0 100 100" fill="none" xmlns="http://www.w3.org/2000/svg">
<g clip-path="url(#clip0_89_237)">
<rect width="100" height="100" rx="50" fill="#FAFAFA"/>
<path d="M61.0946 107.733C44.0261 128.069 14.4769 131.368 -4.90537 115.1C-24.2877 98.8324 -26.1634 69.1589 -9.09486 48.8225C7.97363 28.486 37.5228 25.1876 56.9051 41.4553C76.2874 57.7229 78.1631 87.3965 61.0946 107.733Z" fill="#77B8ED"/>
<path d="M36.4238 44.4597C36.4238 45.5943 35.504 46.5141 34.3694 46.5141C33.2348 46.5141 32.315 45.5943 32.315 44.4597C32.315 43.3251 33.2348 42.4053 34.3694 42.4053C35.504 42.4053 36.4238 43.3251 36.4238 44.4597Z" fill="#111111"/>
<path d="M52.859 59.2514C52.859 60.386 51.9393 61.3058 50.8046 61.3058C49.67 61.3058 48.7502 60.386 48.7502 59.2514C48.7502 58.1168 49.67 57.197 50.8046 57.197C51.9393 57.197 52.859 58.1168 52.859 59.2514Z" fill="#111111"/>
<path d="M32.2954 55.5577C33.5735 57.23 33.0996 59.7397 31.2371 61.1631C29.3745 62.5865 26.8286 62.3847 25.5505 60.7123C24.2724 59.04 26.8401 59.2701 28.7026 57.8467C30.5652 56.4233 31.0173 53.8853 32.2954 55.5577Z" fill="#111111"/>
</g>
<defs>
<clipPath id="clip0_89_237">
<rect width="100" height="100" rx="50" fill="white"/>
</clipPath>
</defs>
</svg>
