<svg width="100" height="100" viewBox="0 0 100 100" fill="none" xmlns="http://www.w3.org/2000/svg">
<g clip-path="url(#clip0_89_243)">
<rect width="100" height="100" rx="50" fill="#FAFAFA"/>
<path d="M44.7181 -5.18647C63.3402 -19.9952 89.878 -17.6122 103.992 0.136162C118.106 17.8845 114.451 44.2772 95.8292 59.086C77.2071 73.8947 50.6694 71.5117 36.5554 53.7633C22.4415 36.015 26.0961 9.62226 44.7181 -5.18647Z" fill="#F6EC94"/>
<path d="M53.1974 52.1579C53.1664 51.1416 53.9652 50.2926 54.9815 50.2616C55.9978 50.2306 56.8468 51.0293 56.8778 52.0456C56.9088 53.0619 56.11 53.911 55.0937 53.942C54.0774 53.973 53.2284 53.1742 53.1974 52.1579Z" fill="#111111"/>
<path d="M38.0719 39.3578C38.0409 38.3415 38.8396 37.4925 39.8559 37.4615C40.8722 37.4304 41.7212 38.2292 41.7522 39.2455C41.7832 40.2618 40.9845 41.1108 39.9682 41.1418C38.9519 41.1728 38.1029 40.3741 38.0719 39.3578Z" fill="#111111"/>
<path d="M56.9176 38.4969C58.3603 37.2817 61.4469 36.6107 62.8002 38.2174C64.1536 39.8241 63.2612 43.1001 61.8185 44.3152C60.3759 45.5304 56.5457 46.7048 55.1923 45.0981C53.839 43.4914 55.475 39.712 56.9176 38.4969Z" fill="#111111"/>
</g>
<defs>
<clipPath id="clip0_89_243">
<rect width="100" height="100" rx="50" fill="white"/>
</clipPath>
</defs>
</svg>
