<svg width="100" height="100" viewBox="0 0 100 100" fill="none" xmlns="http://www.w3.org/2000/svg">
<g clip-path="url(#clip0_89_261)">
<rect width="100" height="100" rx="50" fill="#FAFAFA"/>
<path d="M-5.96928 53.2126C-20.8979 33.5401 -18.9605 6.93848 -1.64196 -6.20378C15.6765 -19.346 41.818 -14.0523 56.7466 5.62021C71.6752 25.2927 69.7378 51.8943 52.4193 65.0366C35.1007 78.1788 8.95931 72.885 -5.96928 53.2126Z" fill="#ED9A77"/>
<path d="M49.5513 54.4622C49.5513 55.5176 48.6957 56.3731 47.6404 56.3731C46.585 56.3731 45.7295 55.5176 45.7295 54.4622C45.7295 53.4068 46.585 52.5513 47.6404 52.5513C48.6957 52.5513 49.5513 53.4068 49.5513 54.4622Z" fill="#111111"/>
<path d="M54.9018 34.5888C54.9018 35.6441 54.0463 36.4997 52.9909 36.4997C51.9356 36.4997 51.08 35.6441 51.08 34.5888C51.08 33.5334 51.9356 32.6779 52.9909 32.6779C54.0463 32.6779 54.9018 33.5334 54.9018 34.5888Z" fill="#111111"/>
<path d="M32.9447 46.0879C31.5686 44.6953 31.7105 42.324 33.2616 40.7914C34.8126 39.2589 37.1855 39.1456 38.5615 40.5382C39.9375 41.9309 37.5413 42.0206 35.9903 43.5532C34.4392 45.0857 34.3207 47.4806 32.9447 46.0879Z" fill="#111111"/>
</g>
<defs>
<clipPath id="clip0_89_261">
<rect width="100" height="100" rx="50" fill="white"/>
</clipPath>
</defs>
</svg>
