<svg width="100" height="100" viewBox="0 0 100 100" fill="none" xmlns="http://www.w3.org/2000/svg">
<g clip-path="url(#clip0_89_267)">
<rect width="100" height="100" rx="50" fill="#FAFAFA"/>
<path d="M64.0747 102.213C48.3995 123.933 20.7626 129.926 2.34603 115.599C-16.0706 101.271 -18.2929 72.0484 -2.61768 50.3281C13.0575 28.6078 40.6944 22.6148 59.111 36.9424C77.5276 51.27 79.7499 80.4925 64.0747 102.213Z" fill="#7781ED"/>
<path d="M37.0596 40.4025C37.5591 39.9385 38.3249 39.9809 38.77 40.4974L40.9348 43.0093C41.3799 43.5258 41.3358 44.3207 40.8363 44.7847C40.3368 45.2488 39.571 45.2063 39.1259 44.6898L36.9611 42.1779C36.516 41.6615 36.5601 40.8666 37.0596 40.4025Z" fill="#111111"/>
<path d="M54.0508 54.6837C54.5503 54.2196 55.3161 54.2621 55.7612 54.7785L57.926 57.2904C58.3711 57.8069 58.327 58.6018 57.8275 59.0659C57.328 59.5299 56.5622 59.4874 56.1171 58.971L53.9523 56.4591C53.5072 55.9426 53.5513 55.1477 54.0508 54.6837Z" fill="#111111"/>
<path d="M33.8221 64.7654C34.3594 64.2662 35.1474 64.1911 35.7598 64.5808L36.638 65.1396C37.1138 65.4423 37.4885 65.8892 37.7117 66.4204L38.0311 67.1802C38.3135 67.8521 38.1473 68.638 37.6192 69.1286L36.955 69.7457C36.8015 69.8883 36.5757 69.9083 36.4021 69.7945L36.2862 69.7185C34.8798 68.7963 33.7588 67.4745 33.0557 65.9093C32.9744 65.7284 33.0172 65.5131 33.161 65.3795L33.8221 64.7654Z" fill="#111111"/>
</g>
<defs>
<clipPath id="clip0_89_267">
<rect width="100" height="100" rx="50" fill="white"/>
</clipPath>
</defs>
</svg>
