<svg width="100" height="100" viewBox="0 0 100 100" fill="none" xmlns="http://www.w3.org/2000/svg">
<g clip-path="url(#clip0_89_279)">
<rect width="100" height="100" rx="50" fill="#FAFAFA"/>
<path d="M93.6127 58.3891C104.814 84.5613 93.6728 114.432 68.7285 125.108C43.7843 135.784 14.4826 123.221 3.2815 97.0489C-7.91964 70.8766 3.22137 41.0055 28.1656 30.3299C53.1099 19.6544 82.4116 32.2169 93.6127 58.3891Z" fill="#969696"/>
<path d="M63.5648 46.0152C63.2091 45.967 62.8817 46.2164 62.8335 46.5722C62.7854 46.9279 63.0348 47.2553 63.3905 47.3034L65.269 47.5576L65.0149 49.4361C64.9667 49.7918 65.2161 50.1192 65.5718 50.1673C65.9276 50.2155 66.255 49.9661 66.3031 49.6103L66.5573 47.7319L68.4357 47.986C68.7915 48.0342 69.1189 47.7848 69.167 47.429C69.2151 47.0733 68.9658 46.7459 68.61 46.6978L66.7316 46.4436L66.9857 44.5651C67.0338 44.2094 66.7845 43.882 66.4287 43.8339C66.073 43.7857 65.7456 44.0351 65.6974 44.3909L65.4433 46.2693L63.5648 46.0152Z" fill="black"/>
<path d="M43.8185 62.104C43.4655 62.0389 43.1266 62.2724 43.0615 62.6254C42.9965 62.9785 43.2299 63.3174 43.583 63.3824L45.4472 63.7259L45.1037 65.5901C45.0386 65.9432 45.2721 66.2821 45.6251 66.3472C45.9782 66.4122 46.3171 66.1788 46.3821 65.8257L46.7256 63.9615L48.5898 64.305C48.9429 64.3701 49.2818 64.1366 49.3469 63.7836C49.4119 63.4305 49.1785 63.0916 48.8254 63.0265L46.9612 62.683L47.3047 60.8188C47.3698 60.4658 47.1363 60.1269 46.7833 60.0618C46.4302 59.9968 46.0913 60.2302 46.0262 60.5833L45.6827 62.4475L43.8185 62.104Z" fill="black"/>
<path d="M59.9953 69.0103C58.8934 67.0407 59.7784 64.4491 61.972 63.2219C64.1656 61.9947 66.8372 62.5965 67.9391 64.5661C69.041 66.5358 66.3508 65.9005 64.1572 67.1278C61.9635 68.355 61.0972 70.9799 59.9953 69.0103Z" fill="#111111"/>
</g>
<defs>
<clipPath id="clip0_89_279">
<rect width="100" height="100" rx="50" fill="white"/>
</clipPath>
</defs>
</svg>
