<svg width="24" height="24" viewBox="0 0 24 24" fill="none" xmlns="http://www.w3.org/2000/svg">
<path d="M4 7H3H4ZM4 9H3V10H4V9ZM20 9V10H21V9H20ZM18 5V4L18 4L18 5ZM6 5L6 4L6 5ZM16 5V6L16 6L16 5ZM8 5L8 6H8V5ZM17 3C17 2.44772 16.5523 2 16 2C15.4477 2 15 2.44772 15 3H17ZM9 3C9 2.44772 8.55228 2 8 2C7.44772 2 7 2.44772 7 3H9ZM5 9.5C5 8.94772 4.55228 8.5 4 8.5C3.44772 8.5 3 8.94772 3 9.5H5ZM4 19H3H4ZM21 9.5C21 8.94772 20.5523 8.5 20 8.5C19.4477 8.5 19 8.94772 19 9.5H21ZM3 7V9H5V7H3ZM4 10H20V8H4V10ZM21 9V7H19V9H21ZM21 7C21 6.20435 20.6839 5.44129 20.1213 4.87868L18.7071 6.29289C18.8946 6.48043 19 6.73478 19 7H21ZM20.1213 4.87868C19.5587 4.31607 18.7956 4 18 4L18 6C18.2652 6 18.5196 6.10536 18.7071 6.29289L20.1213 4.87868ZM18 4H6V6H18V4ZM6 4C5.20435 4 4.44129 4.31607 3.87868 4.87868L5.29289 6.29289C5.48043 6.10536 5.73478 6 6 6L6 4ZM3.87868 4.87868C3.31607 5.44129 3 6.20435 3 7L5 7C5 6.73478 5.10536 6.48043 5.29289 6.29289L3.87868 4.87868ZM16 6L18 6L18 4L16 4L16 6ZM6 6L8 6L8 4L6 4L6 6ZM17 5V3H15V5H17ZM16 4H8V6H16V4ZM7 3V5H9V3H7ZM3 9.5V19H5V9.5H3ZM3 19C3 19.7956 3.31607 20.5587 3.87868 21.1213L5.29289 19.7071C5.10536 19.5196 5 19.2652 5 19H3ZM3.87868 21.1213C4.44129 21.6839 5.20435 22 6 22V20C5.73478 20 5.48043 19.8946 5.29289 19.7071L3.87868 21.1213ZM6 22H18V20H6V22ZM18 22C18.7956 22 19.5587 21.6839 20.1213 21.1213L18.7071 19.7071C18.5196 19.8946 18.2652 20 18 20V22ZM20.1213 21.1213C20.6839 20.5587 21 19.7957 21 19H19C19 19.2652 18.8946 19.5196 18.7071 19.7071L20.1213 21.1213ZM21 19V9.5H19V19H21Z" fill="#767676"/>
</svg>
