<svg width="24" height="24" viewBox="0 0 24 24" fill="none" xmlns="http://www.w3.org/2000/svg">
<path d="M7.04719 6.75C4.81125 6.75 3 8.51094 3 10.6848C3 12.7547 4.65094 14.4719 6.77719 14.6086L7.005 14.6223C7.37625 14.6469 7.69969 14.3734 7.72219 14.0125C7.74469 13.6516 7.46625 13.3371 7.09219 13.3152L6.86437 13.3016C5.44969 13.2086 4.35 12.0629 4.35 10.6848C4.35 9.23828 5.55656 8.0625 7.04719 8.0625H11.5556C13.0434 8.0625 14.2528 9.23555 14.2528 10.6848C14.2528 12.0656 13.1531 13.2086 11.7356 13.2988L11.5078 13.3125C11.1366 13.3371 10.8553 13.6488 10.8778 14.0098C10.9003 14.3707 11.2237 14.6441 11.595 14.6195L11.8228 14.6059C13.9491 14.4691 15.6 12.752 15.6 10.682C15.6 8.51094 13.7887 6.75 11.5528 6.75H7.04719ZM16.9528 17.25C19.1887 17.25 21 15.4891 21 13.3152C21 11.2453 19.3491 9.52813 17.2228 9.39141L16.995 9.37773C16.6237 9.35313 16.3003 9.62656 16.2778 9.99023C16.2553 10.3539 16.5337 10.6656 16.905 10.6875L17.1328 10.7012C18.5503 10.7941 19.65 11.9371 19.65 13.3152C19.65 14.7617 18.4434 15.9375 16.9528 15.9375H12.4472C10.9566 15.9375 9.75 14.7645 9.75 13.3152C9.75 11.9344 10.8497 10.7914 12.2672 10.6984L12.4669 10.6848C12.8381 10.6602 13.1194 10.3484 13.0941 9.98477C13.0687 9.62109 12.7481 9.35039 12.3741 9.375L12.1744 9.38867C10.0509 9.52812 8.4 11.2453 8.4 13.3152C8.4 15.4891 10.2112 17.25 12.4472 17.25H16.9528Z" fill="#C3C3C3"/>
</svg>
