<svg width="24" height="24" viewBox="0 0 24 24" fill="none" xmlns="http://www.w3.org/2000/svg">
<path d="M4.09116 5.1393C3.79866 4.91508 3.37398 4.96704 3.14335 5.25141C2.91273 5.53579 2.96616 5.94868 3.25866 6.1729L19.9087 18.8604C20.2012 19.0846 20.6259 19.0327 20.8565 18.7483C21.0871 18.4639 21.0337 18.051 20.7412 17.8268L19.1549 16.6182C20.2659 15.9182 20.9999 14.7014 20.9999 13.3178C20.9999 11.2479 19.349 9.53071 17.2227 9.39399L16.9949 9.38032C16.6237 9.35571 16.3002 9.62915 16.2777 9.99282C16.2552 10.3565 16.5337 10.6682 16.9049 10.6901L17.1327 10.7038C18.5502 10.7967 19.6499 11.9397 19.6499 13.3178C19.6499 14.4061 18.9665 15.3413 17.9962 15.735L14.6662 13.1975C15.2512 12.5139 15.5999 11.6362 15.5999 10.6846C15.5999 8.51079 13.7887 6.74985 11.5527 6.74985H7.0471C6.79116 6.74985 6.53804 6.77446 6.29335 6.81821L4.09116 5.1393ZM7.92741 8.06235H11.5555C13.0434 8.06235 14.2527 9.23539 14.2527 10.6846C14.2527 11.3327 14.0109 11.9288 13.6059 12.3881L7.92741 8.06235ZM15.5662 17.2498L13.8534 15.9373H12.4499C10.9593 15.9373 9.75273 14.7643 9.75273 13.3151C9.75273 13.151 9.7696 12.987 9.79773 12.8311L8.65023 11.9534C8.48991 12.3799 8.39991 12.8393 8.39991 13.3151C8.39991 15.4889 10.2112 17.2498 12.4471 17.2498H15.5662ZM3.84648 8.2729C3.31491 8.94008 2.99991 9.7768 2.99991 10.6846C2.99991 12.7545 4.65085 14.4717 6.7771 14.6084L7.00491 14.6221C7.37616 14.6467 7.6996 14.3733 7.7221 14.0123C7.7446 13.6514 7.46616 13.337 7.0921 13.3151L6.86429 13.3014C5.4496 13.2084 4.34991 12.0627 4.34991 10.6846C4.34991 10.0831 4.55804 9.53071 4.90679 9.08774L3.84648 8.2729Z" fill="#C3C3C3"/>
</svg>
