<svg width="16" height="16" viewBox="0 0 16 16" fill="none" xmlns="http://www.w3.org/2000/svg">
<path d="M7.33325 12.6666H6.66659C6.4777 12.6666 6.31947 12.6026 6.19192 12.4746C6.06436 12.3466 6.00036 12.1884 5.99992 12C5.99947 11.8115 6.06347 11.6533 6.19192 11.5253C6.32036 11.3973 6.47859 11.3333 6.66659 11.3333H7.33325V9.93329C6.45547 9.77774 5.73592 9.35818 5.17459 8.67463C4.61325 7.99107 4.33281 7.19952 4.33325 6.29996C4.33325 5.28885 4.6917 4.43063 5.40859 3.72529C6.12547 3.01996 6.98925 2.66707 7.99992 2.66663C9.01059 2.66618 9.87459 3.01907 10.5919 3.72529C11.3093 4.43152 11.6675 5.28974 11.6666 6.29996C11.6666 7.19996 11.3859 7.99174 10.8246 8.67529C10.2633 9.35885 9.54392 9.77818 8.66659 9.93329V11.3333H9.33325C9.52214 11.3333 9.68059 11.3973 9.80859 11.5253C9.93659 11.6533 10.0004 11.8115 9.99992 12C9.99947 12.1884 9.93547 12.3468 9.80792 12.4753C9.68036 12.6037 9.52214 12.6675 9.33325 12.6666H8.66659V13.3333C8.66659 13.5222 8.60259 13.6806 8.47459 13.8086C8.34659 13.9366 8.18836 14.0004 7.99992 14C7.81147 13.9995 7.65325 13.9355 7.52525 13.808C7.39725 13.6804 7.33325 13.5222 7.33325 13.3333V12.6666ZM7.99992 8.66663C8.64436 8.66663 9.19436 8.43885 9.64992 7.98329C10.1055 7.52774 10.3333 6.97774 10.3333 6.33329C10.3333 5.68885 10.1055 5.13885 9.64992 4.68329C9.19436 4.22774 8.64436 3.99996 7.99992 3.99996C7.35547 3.99996 6.80547 4.22774 6.34992 4.68329C5.89436 5.13885 5.66659 5.68885 5.66659 6.33329C5.66659 6.97774 5.89436 7.52774 6.34992 7.98329C6.80547 8.43885 7.35547 8.66663 7.99992 8.66663Z" fill="#FF6D6D"/>
</svg>
