<svg width="21" height="21" viewBox="0 0 21 21" fill="none" xmlns="http://www.w3.org/2000/svg">
<g clip-path="url(#clip0_89_308)">
<path d="M9.15887 1.55039C9.17528 1.48887 9.21219 1.43555 9.25731 1.39453C9.66336 1.34121 10.0776 1.3125 10.5001 1.3125C10.9225 1.3125 11.3368 1.34121 11.7429 1.39453C11.788 1.43555 11.8208 1.48887 11.8413 1.55039L12.4032 3.50684C12.5468 4.00313 12.9036 4.37227 13.3261 4.57734C13.6378 4.725 13.9331 4.89727 14.2161 5.09004C14.6016 5.35664 15.1061 5.47969 15.6065 5.35664L17.5835 4.86445C17.645 4.84805 17.7065 4.85215 17.7639 4.87266C17.9854 5.15566 18.1905 5.45508 18.3751 5.7668L18.5514 6.07031C18.7237 6.37793 18.8755 6.69785 19.0108 7.02598C18.9985 7.0875 18.9698 7.14492 18.9247 7.19004L17.5055 8.6543C17.1487 9.02344 17.0052 9.51973 17.0421 9.9873C17.0544 10.1555 17.0626 10.3277 17.0626 10.5C17.0626 10.6723 17.0544 10.8445 17.0421 11.0127C17.0052 11.4803 17.1487 11.9766 17.5055 12.3457L18.9206 13.81C18.9657 13.8551 18.9944 13.9125 19.0067 13.974C18.8714 14.3021 18.7196 14.6221 18.5473 14.9338L18.3751 15.2332C18.1864 15.5449 17.9813 15.8402 17.7639 16.1273C17.7065 16.1479 17.645 16.1479 17.5835 16.1355L15.6065 15.6434C15.1061 15.5203 14.6057 15.6434 14.2161 15.91C13.9331 16.1027 13.6378 16.275 13.3261 16.4227C12.9036 16.6236 12.5427 16.9969 12.4032 17.4932L11.8413 19.4496C11.8249 19.5111 11.788 19.5645 11.7429 19.6055C11.3368 19.6588 10.9225 19.6875 10.5001 19.6875C10.0776 19.6875 9.66336 19.6588 9.25731 19.6055C9.21219 19.5645 9.17938 19.5111 9.15887 19.4496L8.59696 17.4932C8.4534 16.9969 8.09657 16.6277 7.6741 16.4227C7.36239 16.275 7.06707 16.1027 6.78407 15.91C6.39852 15.6434 5.89403 15.5203 5.39364 15.6434L3.41668 16.1355C3.35516 16.152 3.29364 16.1479 3.23621 16.1273C3.01473 15.8402 2.80965 15.5449 2.62098 15.2332L2.44871 14.9338C2.27645 14.6262 2.12469 14.3063 1.98934 13.974C2.00164 13.9125 2.03035 13.8551 2.07547 13.81L3.49461 12.3457C3.85145 11.9766 3.995 11.4803 3.95809 11.0127C3.94578 10.8445 3.93758 10.6723 3.93758 10.5C3.93758 10.3277 3.94578 10.1555 3.95809 9.9873C3.995 9.51973 3.85145 9.02344 3.49461 8.6543L2.07957 7.18594C2.03446 7.14082 2.00575 7.0834 1.99344 7.02187C2.12879 6.69375 2.28055 6.37383 2.45282 6.06211L2.62508 5.7627C2.81375 5.45098 3.01883 5.15566 3.24032 4.86855C3.29774 4.84805 3.35926 4.84805 3.42078 4.86035L5.39774 5.35254C5.89813 5.47559 6.39852 5.35254 6.78817 5.08594C7.07117 4.89316 7.36649 4.7209 7.67821 4.57324C8.10067 4.37227 8.4616 3.99902 8.60106 3.50273L9.16297 1.54629L9.15887 1.55039ZM10.5001 0C9.96688 0 9.43778 0.0410156 8.92508 0.118945C8.85535 0.13125 8.78563 0.151758 8.72 0.18457C8.33035 0.385547 8.02684 0.742383 7.89969 1.18945L7.33778 3.1459C7.31317 3.23613 7.23524 3.33047 7.10809 3.39199C6.73485 3.56836 6.37801 3.77754 6.04168 4.00723C5.92684 4.08516 5.80379 4.10566 5.71356 4.08105L3.7366 3.58887C3.28953 3.47812 2.83016 3.56426 2.46102 3.79805C2.3995 3.83496 2.34617 3.88418 2.30106 3.9416C2.00985 4.30664 1.73914 4.68809 1.49715 5.09004L1.49305 5.10234L1.31258 5.41406L1.30848 5.42637C1.087 5.82832 0.89012 6.24258 0.721956 6.67324C0.697347 6.73887 0.68094 6.80859 0.676839 6.87832C0.656331 7.32129 0.812191 7.76426 1.13621 8.10059L2.55125 9.56484C2.61688 9.63457 2.662 9.74531 2.64969 9.88477C2.63328 10.0898 2.62508 10.2949 2.62508 10.5C2.62508 10.7051 2.63328 10.9143 2.64969 11.1152C2.662 11.2547 2.61688 11.3695 2.55125 11.4352L1.13621 12.9035C0.812191 13.2398 0.656331 13.6828 0.676839 14.1258C0.68094 14.1955 0.697347 14.2652 0.721956 14.3309C0.89012 14.7615 1.087 15.1758 1.30848 15.5777L1.31258 15.59L1.49305 15.9018L1.49715 15.9141C1.73914 16.316 2.00575 16.7016 2.30106 17.0666C2.34617 17.124 2.3995 17.1732 2.46102 17.2102C2.83016 17.4439 3.28953 17.5301 3.7366 17.4193L5.71356 16.9271C5.80379 16.9025 5.92684 16.923 6.04168 17.001C6.37801 17.2348 6.73485 17.4398 7.10809 17.6162C7.23524 17.6777 7.30907 17.7721 7.33778 17.8623L7.89969 19.8105C8.02684 20.2535 8.33035 20.6104 8.72 20.8154C8.78563 20.8482 8.85125 20.8729 8.92508 20.8811C9.43778 20.959 9.96688 21 10.5001 21C11.0333 21 11.5624 20.959 12.0751 20.8811C12.1448 20.8688 12.2145 20.8482 12.2802 20.8154C12.6698 20.6145 12.9733 20.2576 13.1005 19.8105L13.6624 17.8541C13.687 17.7639 13.7649 17.6695 13.8921 17.608C14.2653 17.4316 14.6222 17.2225 14.9585 16.9928C15.0733 16.9148 15.1964 16.8943 15.2866 16.9189L17.2636 17.4111C17.7106 17.5219 18.17 17.4398 18.5391 17.202C18.6007 17.165 18.654 17.1158 18.6991 17.0584C18.9903 16.6934 19.2569 16.3119 19.4989 15.91L19.5071 15.8977L19.6876 15.5859L19.6917 15.5736C19.9132 15.1758 20.11 14.7574 20.2782 14.3268C20.3028 14.2611 20.3192 14.1914 20.3233 14.1217C20.3438 13.6787 20.188 13.2357 19.8639 12.8994L18.4489 11.4352C18.3833 11.3654 18.3382 11.2547 18.3505 11.1152C18.3669 10.9102 18.3751 10.7051 18.3751 10.5C18.3751 10.2949 18.3669 10.0857 18.3505 9.88477C18.3382 9.74531 18.3833 9.63047 18.4489 9.56484L19.8639 8.10059C20.188 7.76426 20.3438 7.32129 20.3233 6.87832C20.3192 6.80859 20.3028 6.73887 20.2782 6.67324C20.11 6.24258 19.9132 5.82832 19.6917 5.42637L19.6876 5.41406L19.5071 5.10234L19.4989 5.09004C19.2569 4.68809 18.9903 4.30254 18.6991 3.9416C18.654 3.88418 18.6007 3.83496 18.5391 3.79805C18.17 3.56426 17.7106 3.47812 17.2636 3.58887L15.2866 4.08105C15.1964 4.10566 15.0733 4.08516 14.9585 4.00723C14.6222 3.77344 14.2653 3.56836 13.8921 3.39199C13.7649 3.33047 13.6911 3.23613 13.6624 3.1459L13.1005 1.18945C12.9733 0.746484 12.6698 0.389648 12.2802 0.18457C12.2145 0.151758 12.1489 0.127148 12.0751 0.118945C11.5624 0.0410156 11.0333 0 10.5001 0ZM8.20321 10.5C8.20321 9.89083 8.4452 9.30661 8.87595 8.87586C9.30669 8.44512 9.89091 8.20313 10.5001 8.20312C11.1093 8.20312 11.6935 8.44512 12.1242 8.87586C12.555 9.30661 12.797 9.89083 12.797 10.5C12.797 11.1092 12.555 11.6934 12.1242 12.1241C11.6935 12.5549 11.1093 12.7969 10.5001 12.7969C9.89091 12.7969 9.30669 12.5549 8.87595 12.1241C8.4452 11.6934 8.20321 11.1092 8.20321 10.5ZM14.1095 10.5C14.1095 9.54273 13.7292 8.62468 13.0523 7.94779C12.3754 7.2709 11.4573 6.89062 10.5001 6.89062C9.54282 6.89062 8.62476 7.2709 7.94787 7.94779C7.27098 8.62468 6.89071 9.54273 6.89071 10.5C6.89071 11.4573 7.27098 12.3753 7.94787 13.0522C8.62476 13.7291 9.54282 14.1094 10.5001 14.1094C11.4573 14.1094 12.3754 13.7291 13.0523 13.0522C13.7292 12.3753 14.1095 11.4573 14.1095 10.5Z" fill="#292929"/>
</g>
<defs>
<clipPath id="clip0_89_308">
<rect width="21" height="21" fill="white"/>
</clipPath>
</defs>
</svg>
