<svg width="18" height="18" viewBox="0 0 18 18" fill="none" xmlns="http://www.w3.org/2000/svg">
<path d="M9 3.51562C5.97041 3.51562 3.51562 5.97041 3.51562 9V10.0547C3.51562 10.4054 3.2335 10.6875 2.88281 10.6875C2.53213 10.6875 2.25 10.4054 2.25 10.0547V9C2.25 5.27168 5.27168 2.25 9 2.25C12.7283 2.25 15.75 5.27168 15.75 9V12.7995C15.75 14.081 14.7111 15.1198 13.4271 15.1198L10.5188 15.1172C10.2999 15.4942 9.89121 15.75 9.42188 15.75H8.57812C7.87939 15.75 7.3125 15.1831 7.3125 14.4844C7.3125 13.7856 7.87939 13.2188 8.57812 13.2188H9.42188C9.89121 13.2188 10.2999 13.4745 10.5188 13.8516L13.4297 13.8542C14.0124 13.8542 14.4844 13.3822 14.4844 12.7995V9C14.4844 5.97041 12.0296 3.51562 9 3.51562ZM6.04688 7.73438H6.46875C6.93545 7.73438 7.3125 8.11143 7.3125 8.57812V11.5312C7.3125 11.9979 6.93545 12.375 6.46875 12.375H6.04688C5.11611 12.375 4.35938 11.6183 4.35938 10.6875V9.42188C4.35938 8.49111 5.11611 7.73438 6.04688 7.73438ZM11.9531 7.73438C12.8839 7.73438 13.6406 8.49111 13.6406 9.42188V10.6875C13.6406 11.6183 12.8839 12.375 11.9531 12.375H11.5312C11.0646 12.375 10.6875 11.9979 10.6875 11.5312V8.57812C10.6875 8.11143 11.0646 7.73438 11.5312 7.73438H11.9531Z" fill="#45495E"/>
</svg>
