<svg width="18" height="18" viewBox="0 0 18 18" fill="none" xmlns="http://www.w3.org/2000/svg">
<path d="M3.75 15.75C3.3375 15.75 2.9845 15.6033 2.691 15.3098C2.3975 15.0163 2.2505 14.663 2.25 14.25V3.75C2.25 3.3375 2.397 2.9845 2.691 2.691C2.985 2.3975 3.338 2.2505 3.75 2.25H8.25C8.4625 2.25 8.64075 2.322 8.78475 2.466C8.92875 2.61 9.0005 2.788 9 3C8.9995 3.212 8.9275 3.39025 8.784 3.53475C8.6405 3.67925 8.4625 3.751 8.25 3.75H3.75V14.25H8.25C8.4625 14.25 8.64075 14.322 8.78475 14.466C8.92875 14.61 9.0005 14.788 9 15C8.9995 15.212 8.9275 15.3902 8.784 15.5347C8.6405 15.6792 8.4625 15.751 8.25 15.75H3.75ZM12.8812 9.75H7.5C7.2875 9.75 7.1095 9.678 6.966 9.534C6.8225 9.39 6.7505 9.212 6.75 9C6.7495 8.788 6.8215 8.61 6.966 8.466C7.1105 8.322 7.2885 8.25 7.5 8.25H12.8812L11.475 6.84375C11.3375 6.70625 11.2687 6.5375 11.2687 6.3375C11.2687 6.1375 11.3375 5.9625 11.475 5.8125C11.6125 5.6625 11.7875 5.58425 12 5.57775C12.2125 5.57125 12.3938 5.64325 12.5438 5.79375L15.225 8.475C15.375 8.625 15.45 8.8 15.45 9C15.45 9.2 15.375 9.375 15.225 9.525L12.5438 12.2062C12.3938 12.3562 12.2158 12.4282 12.0098 12.4222C11.8038 12.4162 11.6255 12.338 11.475 12.1875C11.3375 12.0375 11.272 11.8595 11.2785 11.6535C11.285 11.4475 11.3567 11.2755 11.4937 11.1375L12.8812 9.75Z" fill="#45495E"/>
</svg>
