<svg width="16" height="16" viewBox="0 0 16 16" fill="none" xmlns="http://www.w3.org/2000/svg">
<path d="M13.3334 3.33329V5.99996C13.3334 6.18885 13.2694 6.34729 13.1414 6.47529C13.0134 6.60329 12.8552 6.66707 12.6667 6.66663C12.4783 6.66618 12.3201 6.60218 12.1921 6.47463C12.0641 6.34707 12.0001 6.18885 12.0001 5.99996V4.94996L9.35008 7.58329C9.56119 7.8944 9.7223 8.22507 9.83341 8.57529C9.94453 8.92552 10.0001 9.28929 10.0001 9.66663C10.0001 10.6888 9.64453 11.5555 8.93341 12.2666C8.2223 12.9777 7.35564 13.3333 6.33341 13.3333C5.31119 13.3333 4.44453 12.9777 3.73341 12.2666C3.0223 11.5555 2.66675 10.6888 2.66675 9.66663C2.66675 8.6444 3.0223 7.77774 3.73341 7.06663C4.44453 6.35552 5.31119 5.99996 6.33341 5.99996C6.70008 5.99996 7.06119 6.05263 7.41675 6.15796C7.7723 6.26329 8.10008 6.42729 8.40008 6.64996L11.0501 3.99996H10.0001C9.81119 3.99996 9.65297 3.93596 9.52541 3.80796C9.39786 3.67996 9.33386 3.52174 9.33341 3.33329C9.33297 3.14485 9.39697 2.98663 9.52541 2.85863C9.65386 2.73063 9.81208 2.66663 10.0001 2.66663H12.6667C12.8556 2.66663 13.0141 2.73063 13.1421 2.85863C13.2701 2.98663 13.3339 3.14485 13.3334 3.33329ZM6.33341 7.33329C5.68897 7.33329 5.13897 7.56107 4.68341 8.01663C4.22786 8.47218 4.00008 9.02218 4.00008 9.66663C4.00008 10.3111 4.22786 10.8611 4.68341 11.3166C5.13897 11.7722 5.68897 12 6.33341 12C6.97786 12 7.52786 11.7722 7.98341 11.3166C8.43897 10.8611 8.66675 10.3111 8.66675 9.66663C8.66675 9.02218 8.43897 8.47218 7.98341 8.01663C7.52786 7.56107 6.97786 7.33329 6.33341 7.33329Z" fill="#5C95FF"/>
</svg>
