<svg width="16" height="16" viewBox="0 0 16 16" fill="none" xmlns="http://www.w3.org/2000/svg">
<g clip-path="url(#clip0_89_312)">
<path d="M13.3334 5.33337H11.5557V6.22226H13.3334V7.11115H14.2223V6.22226C14.2223 5.98651 14.1287 5.76042 13.962 5.59372C13.7953 5.42702 13.5692 5.33337 13.3334 5.33337Z" fill="#45495E"/>
<path d="M13.3333 8H14.2221V10.6667H13.3333V8Z" fill="#45495E"/>
<path d="M13.3332 13.3333H12.4443V14.2222H13.3332C13.569 14.2222 13.7951 14.1286 13.9618 13.9619C14.1285 13.7952 14.2221 13.5691 14.2221 13.3333V11.5555H13.3332V13.3333Z" fill="#45495E"/>
<path d="M10.6667 9.77783V2.66672C10.6667 2.43097 10.5731 2.20488 10.4064 2.03818C10.2397 1.87148 10.0136 1.77783 9.77783 1.77783H2.66672C2.43097 1.77783 2.20488 1.87148 2.03818 2.03818C1.87148 2.20488 1.77783 2.43097 1.77783 2.66672V9.77783C1.77783 10.0136 1.87148 10.2397 2.03818 10.4064C2.20488 10.5731 2.43097 10.6667 2.66672 10.6667H9.77783C10.0136 10.6667 10.2397 10.5731 10.4064 10.4064C10.5731 10.2397 10.6667 10.0136 10.6667 9.77783ZM2.66672 2.66672H9.77783V9.77783H2.66672V2.66672Z" fill="#45495E"/>
<path d="M8.88892 13.3334H11.5556V14.2223H8.88892V13.3334Z" fill="#45495E"/>
<path d="M6.22214 11.5555H5.33325V13.3333C5.33325 13.5691 5.4269 13.7952 5.5936 13.9619C5.7603 14.1286 5.98639 14.2222 6.22214 14.2222H7.99992V13.3333H6.22214V11.5555Z" fill="#45495E"/>
</g>
<defs>
<clipPath id="clip0_89_312">
<rect width="16" height="16" fill="white"/>
</clipPath>
</defs>
</svg>
