<svg width="18" height="18" viewBox="0 0 18 18" fill="none" xmlns="http://www.w3.org/2000/svg">
<ellipse cx="9" cy="5.25024" rx="2.25" ry="2.25" stroke="#45495E" stroke-width="1.3"/>
<path fill-rule="evenodd" clip-rule="evenodd" d="M14.9113 13.3307C15.1625 13.0698 15.6501 13.1378 15.6501 13.5V13.5C15.6501 14.6874 14.6875 15.65 13.5001 15.65H4.5001C3.31269 15.65 2.3501 14.6874 2.3501 13.5C2.3501 11.4841 3.98426 9.84998 6.0001 9.84998H9.23923C9.62812 9.84998 9.88922 10.2636 9.81116 10.6446V10.6446C9.75525 10.9175 9.5306 11.15 9.25206 11.15H6.0001C4.70223 11.15 3.6501 12.2021 3.6501 13.5C3.6501 13.9694 4.03066 14.35 4.5001 14.35H13.5001C13.7814 14.35 14.0308 14.2133 14.1855 14.0028C14.2627 13.8977 14.3459 13.7941 14.4532 13.72C14.6187 13.6057 14.7721 13.4751 14.9113 13.3307Z" fill="#45495E"/>
<path d="M14.9875 9.71454C15.0174 9.79102 14.9922 9.87629 14.9278 9.9308L14.5241 10.2772C14.5343 10.3501 14.5399 10.4248 14.5399 10.5004C14.5399 10.576 14.5343 10.6508 14.5241 10.7237L14.9278 11.0701C14.9922 11.1246 15.0174 11.2099 14.9875 11.2863C14.9465 11.3909 14.8971 11.4912 14.8402 11.5879L14.7964 11.6591C14.7348 11.7558 14.6658 11.8472 14.5903 11.9333C14.5353 11.9966 14.4439 12.0177 14.3618 11.9931L13.8424 11.8375C13.7175 11.9281 13.5795 12.0037 13.4321 12.0608L13.3156 12.5628C13.2969 12.6428 13.2316 12.706 13.1458 12.7192C13.0172 12.7395 12.8847 12.75 12.7495 12.75C12.6143 12.75 12.4819 12.7395 12.3532 12.7192C12.2674 12.706 12.2022 12.6428 12.1835 12.5628L12.0669 12.0608C11.9196 12.0037 11.7816 11.9281 11.6566 11.8375L11.1382 11.994C11.0561 12.0186 10.9647 11.9966 10.9097 11.9342C10.8342 11.8481 10.7652 11.7566 10.7036 11.6599L10.6598 11.5887C10.6029 11.492 10.5535 11.3918 10.5125 11.2872C10.4826 11.2107 10.5078 11.1255 10.5722 11.071L10.9759 10.7246C10.9657 10.6508 10.9601 10.576 10.9601 10.5004C10.9601 10.4248 10.9657 10.3501 10.9759 10.2772L10.5722 9.9308C10.5078 9.87629 10.4826 9.79102 10.5125 9.71454C10.5535 9.60993 10.6029 9.50972 10.6598 9.41302L10.7036 9.34181C10.7652 9.24512 10.8342 9.15369 10.9097 9.06754C10.9647 9.00425 11.0561 8.98315 11.1382 9.00777L11.6576 9.16336C11.7825 9.07282 11.9205 8.99722 12.0679 8.94008L12.1844 8.43812C12.2031 8.35813 12.2684 8.29483 12.3542 8.28165C12.4828 8.26055 12.6153 8.25 12.7505 8.25C12.8857 8.25 13.0181 8.26055 13.1468 8.28077C13.2326 8.29395 13.2978 8.35725 13.3165 8.43724L13.4331 8.9392C13.5804 8.99634 13.7184 9.07194 13.8434 9.16248L14.3628 9.00689C14.4448 8.98227 14.5362 9.00425 14.5912 9.06666C14.6667 9.15281 14.7358 9.24424 14.7973 9.34094L14.8411 9.41214C14.898 9.50884 14.9474 9.60905 14.9885 9.71366L14.9875 9.71454ZM12.7505 11.2037C12.9483 11.2037 13.1381 11.1296 13.278 10.9977C13.4179 10.8658 13.4965 10.687 13.4965 10.5004C13.4965 10.3139 13.4179 10.135 13.278 10.0032C13.1381 9.87127 12.9483 9.79718 12.7505 9.79718C12.5526 9.79718 12.3629 9.87127 12.223 10.0032C12.0831 10.135 12.0045 10.3139 12.0045 10.5004C12.0045 10.687 12.0831 10.8658 12.223 10.9977C12.3629 11.1296 12.5526 11.2037 12.7505 11.2037Z" fill="#45495E"/>
</svg>
